<svg width="240" height="62" viewBox="0 0 240 62" fill="none" xmlns="http://www.w3.org/2000/svg">
    <path
        d="M51.3074 40.5148C51.3074 36.8692 51.8542 33.6923 52.9479 30.9842C54.0937 28.224 55.5779 25.9325 57.4007 24.1097C59.2235 22.2869 61.3067 20.9068 63.6503 19.9693C66.0459 19.0319 68.4937 18.5632 70.9935 18.5632C76.8264 18.5632 81.4355 20.3599 84.8206 23.9534C88.2058 27.4949 89.8984 32.7289 89.8984 39.6554C89.8984 40.3325 89.8724 41.0876 89.8203 41.9209C89.7682 42.7021 89.7161 43.4052 89.664 44.0301H63.2597C63.5201 46.4258 64.6398 48.3267 66.6188 49.7329C68.5978 51.139 71.2539 51.8421 74.587 51.8421C76.7223 51.8421 78.8054 51.6598 80.8365 51.2952C82.9197 50.8786 84.6123 50.3838 85.9143 49.811L87.4767 59.2634C86.8517 59.5759 86.0185 59.8884 84.9769 60.2009C83.9353 60.5133 82.7635 60.7737 81.4615 60.982C80.2116 61.2424 78.8575 61.4508 77.3993 61.607C75.9411 61.7632 74.4828 61.8414 73.0246 61.8414C69.327 61.8414 66.098 61.2945 63.3378 60.2009C60.6297 59.1072 58.3642 57.6229 56.5414 55.748C54.7707 53.8211 53.4427 51.5556 52.5573 48.9517C51.724 46.3477 51.3074 43.5354 51.3074 40.5148ZM78.6492 36.062C78.5971 35.0724 78.4148 34.109 78.1024 33.1715C77.842 32.2341 77.3993 31.4008 76.7743 30.6717C76.2015 29.9426 75.4463 29.3437 74.5089 28.875C73.6235 28.4062 72.5038 28.1719 71.1497 28.1719C69.8477 28.1719 68.728 28.4062 67.7906 28.875C66.8532 29.2916 66.072 29.8645 65.447 30.5936C64.8221 31.3227 64.3273 32.182 63.9627 33.1715C63.6503 34.109 63.4159 35.0724 63.2597 36.062H78.6492Z"
        fill="url(#paint0_linear_4_45295)" />
    <path
        d="M123.645 29.9686C122.603 29.7082 121.379 29.4478 119.973 29.1874C118.567 28.875 117.057 28.7187 115.442 28.7187C114.713 28.7187 113.828 28.7968 112.786 28.9531C111.797 29.0572 111.042 29.1874 110.521 29.3437V60.7477H98.8809V21.8442C100.964 21.1151 103.412 20.4381 106.224 19.8131C109.089 19.1361 112.265 18.7976 115.755 18.7976C116.38 18.7976 117.135 18.8496 118.02 18.9538C118.906 19.0059 119.791 19.11 120.676 19.2663C121.562 19.3704 122.447 19.5267 123.332 19.735C124.218 19.8912 124.973 20.0995 125.598 20.3599L123.645 29.9686Z"
        fill="url(#paint1_linear_4_45295)" />
    <path
        d="M143.477 60.7477H131.838V19.6569H143.477V60.7477ZM144.571 7.78272C144.571 9.91798 143.868 11.6106 142.462 12.8605C141.108 14.0583 139.493 14.6572 137.618 14.6572C135.744 14.6572 134.103 14.0583 132.697 12.8605C131.343 11.6106 130.666 9.91798 130.666 7.78272C130.666 5.64745 131.343 3.9809 132.697 2.78307C134.103 1.53316 135.744 0.908208 137.618 0.908208C139.493 0.908208 141.108 1.53316 142.462 2.78307C143.868 3.9809 144.571 5.64745 144.571 7.78272Z"
        fill="url(#paint2_linear_4_45295)" />
    <path
        d="M164.34 39.8898C164.34 43.4833 165.147 46.3737 166.762 48.5611C168.376 50.7484 170.772 51.8421 173.949 51.8421C174.99 51.8421 175.954 51.816 176.839 51.764C177.725 51.6598 178.454 51.5556 179.027 51.4515V30.2811C178.297 29.8124 177.334 29.4218 176.136 29.1093C174.99 28.7968 173.819 28.6406 172.621 28.6406C167.1 28.6406 164.34 32.3903 164.34 39.8898ZM190.666 59.4197C189.625 59.7321 188.427 60.0446 187.073 60.3571C185.719 60.6175 184.287 60.8519 182.776 61.0602C181.318 61.2685 179.808 61.4247 178.245 61.5289C176.735 61.6851 175.277 61.7632 173.871 61.7632C170.486 61.7632 167.465 61.2685 164.809 60.279C162.153 59.2895 159.913 57.8833 158.091 56.0605C156.268 54.1857 154.862 51.9462 153.872 49.3423C152.935 46.6862 152.466 43.7177 152.466 40.4366C152.466 37.1035 152.883 34.109 153.716 31.4529C154.549 28.7448 155.747 26.4533 157.309 24.5784C158.872 22.7035 160.773 21.2713 163.012 20.2818C165.304 19.2923 167.908 18.7976 170.824 18.7976C172.438 18.7976 173.871 18.9538 175.121 19.2663C176.423 19.5788 177.725 20.0214 179.027 20.5943V2.00188L190.666 0.127014V59.4197Z"
        fill="url(#paint3_linear_4_45295)" />
    <path
        d="M240 40.1242C240 43.3531 239.531 46.3216 238.594 49.0298C237.656 51.6858 236.302 53.9773 234.532 55.9043C232.761 57.7791 230.626 59.2374 228.126 60.279C225.678 61.3206 222.918 61.8414 219.845 61.8414C216.825 61.8414 214.064 61.3206 211.565 60.279C209.117 59.2374 207.008 57.7791 205.237 55.9043C203.466 53.9773 202.086 51.6858 201.097 49.0298C200.107 46.3216 199.612 43.3531 199.612 40.1242C199.612 36.8952 200.107 33.9527 201.097 31.2967C202.138 28.6406 203.544 26.3751 205.315 24.5003C207.138 22.6254 209.273 21.1672 211.721 20.1256C214.221 19.084 216.929 18.5632 219.845 18.5632C222.814 18.5632 225.522 19.084 227.97 20.1256C230.469 21.1672 232.605 22.6254 234.375 24.5003C236.146 26.3751 237.526 28.6406 238.516 31.2967C239.505 33.9527 240 36.8952 240 40.1242ZM228.126 40.1242C228.126 36.5307 227.397 33.7184 225.939 31.6873C224.532 29.6041 222.501 28.5625 219.845 28.5625C217.189 28.5625 215.132 29.6041 213.674 31.6873C212.215 33.7184 211.486 36.5307 211.486 40.1242C211.486 43.7177 212.215 46.582 213.674 48.7173C215.132 50.8005 217.189 51.8421 219.845 51.8421C222.501 51.8421 224.532 50.8005 225.939 48.7173C227.397 46.582 228.126 43.7177 228.126 40.1242Z"
        fill="url(#paint4_linear_4_45295)" />
    <path d="M25.4874 61.873L0 47.4307L6.42234 36.0967L20.5844 44.148L43.0378 4.47589L54.3718 10.8982L25.4874 61.873Z"
        fill="url(#paint5_linear_4_45295)" />
    <defs>
        <linearGradient id="paint0_linear_4_45295" x1="120" y1="0.127014" x2="120" y2="61.873"
            gradientUnits="userSpaceOnUse">
            <stop stop-color="#06BA4C" />
            <stop offset="1" stop-color="#039E40" />
        </linearGradient>
        <linearGradient id="paint1_linear_4_45295" x1="120" y1="0.127014" x2="120" y2="61.873"
            gradientUnits="userSpaceOnUse">
            <stop stop-color="#06BA4C" />
            <stop offset="1" stop-color="#039E40" />
        </linearGradient>
        <linearGradient id="paint2_linear_4_45295" x1="120" y1="0.127014" x2="120" y2="61.873"
            gradientUnits="userSpaceOnUse">
            <stop stop-color="#06BA4C" />
            <stop offset="1" stop-color="#039E40" />
        </linearGradient>
        <linearGradient id="paint3_linear_4_45295" x1="120" y1="0.127014" x2="120" y2="61.873"
            gradientUnits="userSpaceOnUse">
            <stop stop-color="#06BA4C" />
            <stop offset="1" stop-color="#039E40" />
        </linearGradient>
        <linearGradient id="paint4_linear_4_45295" x1="120" y1="0.127014" x2="120" y2="61.873"
            gradientUnits="userSpaceOnUse">
            <stop stop-color="#06BA4C" />
            <stop offset="1" stop-color="#039E40" />
        </linearGradient>
        <linearGradient id="paint5_linear_4_45295" x1="120" y1="0.127014" x2="120" y2="61.873"
            gradientUnits="userSpaceOnUse">
            <stop stop-color="#06BA4C" />
            <stop offset="1" stop-color="#039E40" />
        </linearGradient>
    </defs>
</svg>